name analog
datacolumns 19
datarows 32
range 0.20450000000000002 0.22
endheader
time	ground_force_vx	ground_force_vy	ground_force_vz	ground_force_px	ground_force_py	ground_force_pz	l_ground_force_vx	l_ground_force_vy	l_ground_force_vz	l_ground_force_px	l_ground_force_py	l_ground_force_pz	ground_torque_x	ground_torque_y	ground_torque_z	l_ground_torque_x	l_ground_torque_y	l_ground_torque_z
0.20450000000000002	-0.0	-0.0	-0.0	-3.8360519409179688	61.2772216796875	-408.9829406738281	3.0308070182800293	-60.956539154052734	-413.7446899414063	-0.0	-0.0	-0.0	-0.0	-0.0	-0.0	89717.9375	8911.54296875	-3587.698974609375
0.20500000000000002	-0.0	-0.0	-0.0	-4.386196136474609	61.277191162109375	-406.8046875	3.149559736251831	-61.39818572998047	-412.2877197265625	-0.0	-0.0	-0.0	-0.0	-0.0	-0.0	89576.609375	8907.615234375	-3687.007080078125
0.20550000000000002	-0.0	-0.0	-0.0	-4.653866767883301	62.034759521484375	-411.0423889160156	3.445427894592285	-61.60416793823242	-413.3955078125	-0.0	-0.0	-0.0	-0.0	-0.0	-0.0	89324.3828125	9166.646484375	-3706.29931640625
0.20600000000000002	-0.0	-0.0	-0.0	-5.664596080780029	61.94563293457031	-410.6890563964844	3.1493279933929443	-61.88412857055664	-412.4061584472656	-0.0	-0.0	-0.0	-0.0	-0.0	-0.0	89471.515625	9479.9072265625	-3691.819580078125
0.20650000000000002	-0.0	-0.0	-0.0	-6.081295967102051	62.01979064941406	-410.8075866699219	2.602163791656494	-61.53073501586914	-411.0096130371094	-0.0	-0.0	-0.0	-0.0	-0.0	-0.0	88944.8359375	9468.6025390625	-3741.5654296875
0.20700000000000002	-0.0	-0.0	-0.0	-6.645728588104248	61.61912536621094	-412.7484436035156	2.63169527053833	-61.89875411987305	-412.0572204589844	-0.0	-0.0	-0.0	-0.0	-0.0	-0.0	88943.9453125	9557.7412109375	-3761.427001953125
0.20750000000000002	-0.0	-0.0	-0.0	-6.318887233734131	62.21188354492188	-413.0416870117188	2.57220721244812	-61.36919021606445	-410.7760925292969	-0.0	-0.0	-0.0	-0.0	-0.0	-0.0	88847.734375	9524.9072265625	-3850.352783203125
0.20800000000000002	-0.0	-0.0	-0.0	-6.898118495941162	62.39252471923828	-411.3352966308594	2.070086479187012	-61.07469940185547	-409.7284240722656	-0.0	-0.0	-0.0	-0.0	-0.0	-0.0	88654.40625	9923.21875	-4038.406005859375
0.2085	-0.0	-0.0	-0.0	-7.226051330566406	61.93200302124024	-412.2748107910156	1.833110809326172	-61.20619583129883	-409.4990539550781	-0.0	-0.0	-0.0	-0.0	-0.0	-0.0	88606.4765625	9735.845703125	-4063.507080078125
0.209	-0.0	-0.0	-0.0	-7.611491680145264	62.53926467895508	-412.45416259765625	1.449265480041504	-60.97172546386719	-410.602294921875	-0.0	-0.0	-0.0	-0.0	-0.0	-0.0	88375.3515625	9889.3916015625	-4117.76611328125
0.2095	-0.0	-0.0	-0.0	-7.729122161865234	62.436767578125	-412.2210693359375	1.566856861114502	-60.677001953125	-410.6568908691406	-0.0	-0.0	-0.0	-0.0	-0.0	-0.0	88490.421875	10080.2255859375	-4063.62353515625
0.21	-0.0	-0.0	-0.0	-7.434900760650635	62.52601623535156	-412.0487365722656	1.124558448791504	-60.55879211425781	-408.5073852539063	-0.0	-0.0	-0.0	-0.0	-0.0	-0.0	88317.84375	10239.5810546875	-4073.982666015625
0.2105	-0.0	-0.0	-0.0	-7.330514907836914	63.16297912597656	-413.0906372070313	1.1682860851287842	-60.36865234375	-409.7855529785156	-0.0	-0.0	-0.0	-0.0	-0.0	-0.0	88494.0390625	10164.443359375	-4271.03076171875
0.211	-0.0	-0.0	-0.0	-7.302426338195801	63.08906555175781	-414.5727844238281	1.168307900428772	-60.34040069580078	-411.64306640625	-0.0	-0.0	-0.0	-0.0	-0.0	-0.0	88769.03125	10580.8759765625	-4241.90478515625
0.2115	-0.0	-0.0	-0.0	-7.269320487976074	63.6544075012207	-414.875732421875	1.3287343978881836	-60.7953987121582	-411.0109252929688	-0.0	-0.0	-0.0	-0.0	-0.0	-0.0	88716.4296875	10570.88671875	-4222.38330078125
0.212	-0.0	-0.0	-0.0	-7.404472351074219	63.4761848449707	-416.33837890625	0.9888045191764832	-60.80841064453125	-411.3601989746094	-0.0	-0.0	-0.0	-0.0	-0.0	-0.0	88509.6015625	10861.435546875	-4321.09228515625
0.2125	-0.0	-0.0	-0.0	-7.358339786529541	63.903446197509766	-418.9201965332031	0.6968238353729248	-61.19182968139648	-411.1811828613281	-0.0	-0.0	-0.0	-0.0	-0.0	-0.0	88662.7421875	11157.4169921875	-4346.7685546875
0.213	-0.0	-0.0	-0.0	-6.887893199920654	63.62370681762695	-418.1170043945313	0.1064379811286926	-61.29524993896485	-411.8193664550781	-0.0	-0.0	-0.0	-0.0	-0.0	-0.0	88393.578125	11570.416015625	-4563.41748046875
0.2135	-0.0	-0.0	-0.0	-7.23799991607666	63.8054313659668	-419.4554138183594	0.0707132220268249	-61.10617446899414	-410.9514770507813	-0.0	-0.0	-0.0	-0.0	-0.0	-0.0	88457.84375	11799.103515625	-4652.3349609375
0.214	-0.0	-0.0	-0.0	-7.148595333099365	63.863800048828125	-420.038818359375	-0.8259771466255188	-61.47189331054688	-410.264892578125	-0.0	-0.0	-0.0	-0.0	-0.0	-0.0	88270.265625	11819.345703125	-5003.87255859375
0.2145	-0.0	-0.0	-0.0	-7.0786566734313965	64.18938446044922	-419.6391906738281	-1.4621694087982178	-61.10337066650391	-410.4216003417969	-0.0	-0.0	-0.0	-0.0	-0.0	-0.0	87876.6953125	12008.91796875	-5045.1357421875
0.215	-0.0	-0.0	-0.0	-7.253053188323975	64.49933624267578	-419.4546203613281	-2.5539205074310303	-61.12194442749024	-407.5939025878906	-0.0	-0.0	-0.0	-0.0	-0.0	-0.0	87459.34375	12585.6806640625	-5125.806640625
0.2155	-0.0	-0.0	-0.0	-7.027704238891602	64.67752075195312	-419.0394287109375	-2.912074089050293	-60.957279205322266	-408.7354736328125	-0.0	-0.0	-0.0	-0.0	-0.0	-0.0	87359.671875	12644.51171875	-5371.31494140625
0.216	-0.0	-0.0	-0.0	-7.877305030822754	64.60394287109375	-419.9309692382813	-3.2786192893981934	-60.86897659301758	-408.15826416015625	-0.0	-0.0	-0.0	-0.0	-0.0	-0.0	87225.0859375	12836.6123046875	-5348.251953125
0.2165	-0.0	-0.0	-0.0	-8.559540748596191	64.3365249633789	-419.1626586914063	-3.4751577377319336	-60.25075912475586	-409.1295471191406	-0.0	-0.0	-0.0	-0.0	-0.0	-0.0	87398.359375	13040.9990234375	-5401.14453125
0.217	-0.0	-0.0	-0.0	-8.249521255493164	64.74002075195312	-421.4911804199219	-4.034269332885742	-60.28161239624024	-407.1716918945313	-0.0	-0.0	-0.0	-0.0	-0.0	-0.0	87252.03125	13527.8037109375	-5539.4814453125
0.2175	-0.0	-0.0	-0.0	-8.684834480285645	64.2787094116211	-423.1095581054688	-4.1849045753479	-59.798038482666016	-407.0497741699219	-0.0	-0.0	-0.0	-0.0	-0.0	-0.0	87205.2109375	13357.7763671875	-5476.3486328125
0.218	-0.0	-0.0	-0.0	-8.73215103149414	64.17388916015625	-421.6344909667969	-4.612960815429688	-59.52881622314453	-407.80908203125	-0.0	-0.0	-0.0	-0.0	-0.0	-0.0	87357.5	13375.0263671875	-5521.83447265625
0.2185	-0.0	-0.0	-0.0	-8.716560363769531	64.36792755126953	-425.2286376953125	-4.5086750984191895	-59.025184631347656	-408.0542907714844	-0.0	-0.0	-0.0	-0.0	-0.0	-0.0	87252.2109375	13815.6689453125	-5544.5419921875
0.219	-0.0	-0.0	-0.0	-9.565872192382812	64.04300689697266	-426.641357421875	-4.566169738769531	-58.437896728515625	-407.9318542480469	-0.0	-0.0	-0.0	-0.0	-0.0	-0.0	87406.0859375	13880.8583984375	-5526.80029296875
0.2195	-0.0	-0.0	-0.0	-9.162857055664062	64.35215759277344	-428.3445434570313	-4.8478217124938965	-58.08453369140625	-409.0411682128906	-0.0	-0.0	-0.0	-0.0	-0.0	-0.0	87391.0703125	13862.2451171875	-5521.73388671875
0.22	-0.0	-0.0	-0.0	-9.361003875732422	63.9956283569336	-430.8166198730469	-5.192248344421387	-57.66376876831055	-409.0416259765625	-0.0	-0.0	-0.0	-0.0	-0.0	-0.0	87332.921875	13873.908203125	-5738.2578125
